<svg width="1077" height="354" viewBox="0 0 1077 354" fill="none" xmlns="http://www.w3.org/2000/svg">
<path fill-rule="evenodd" clip-rule="evenodd" d="M232.683 1.138C128.396 8.904 53.8206 45.613 16.5686 107.52C9.72761 118.888 3.29261 135.012 1.24161 145.924C-1.13239 158.553 -1.24339 158.472 11.4496 153.368C29.2796 146.199 37.5916 144.568 56.1826 144.593C70.6916 144.613 73.0016 144.866 80.9706 147.314C101.149 153.512 117.185 164.498 131.915 182.216C135.395 186.402 139.976 192.79 142.094 196.413C144.213 200.036 146.244 203 146.607 203C146.97 203 149.273 200.919 151.725 198.375C157.325 192.566 167.375 185.975 175.183 182.992C184.163 179.56 202.356 179.016 213.542 181.845C237.492 187.902 264.661 204.552 289.332 228.293L299.508 238.085L306.092 234.056C322.04 224.295 339.025 217.34 353.73 214.551C375.168 210.484 393.117 215.365 406.71 228.958C417.659 239.907 421.657 248.043 428.788 273.884C435.427 297.941 442.541 310.812 456.824 324.609C495.219 361.697 559.001 363.866 599.875 329.474C613.843 317.72 635.365 289.197 646.26 268C648.945 262.775 652.659 256.82 654.514 254.767C659.113 249.674 667.729 247.045 682.183 246.323C699.478 245.46 714.735 249.898 730.501 260.379C741.36 267.598 755.77 281.147 761.906 289.909C763.222 291.787 763.704 291.481 771.791 283.628C786.018 269.81 800.574 261.615 818.446 257.362C827.612 255.18 845.805 255.179 856.958 257.359C874.532 260.794 895.266 269.775 911.678 281.06C918.757 285.928 920.452 286.707 921.788 285.705C922.671 285.042 927.026 281.568 931.466 277.984C966.432 249.759 1005.52 243.545 1041.43 260.504C1052.53 265.745 1062.34 272.191 1070.59 279.656L1076.68 285.168V281.577C1076.68 275.852 1073.83 258.332 1071.21 248C1060.83 206.97 1040.01 171.943 1007.01 139.966C975.971 109.896 933.203 84.022 890.183 69.289C878.92 65.432 861.46 60.992 857.683 61.024C855.773 61.04 853.585 63.004 848.408 69.349C830.766 90.97 797.411 121.528 775.024 136.578C758.242 147.86 732.177 160.155 706.811 168.754C691.439 173.965 689.503 174.39 681.183 174.378C674.277 174.368 670.868 173.849 666.53 172.147C655.652 167.879 646.884 159.126 642.491 148.153C640.251 142.555 640.231 142.084 640.466 100C640.596 76.625 640.974 49.737 641.305 40.25C641.636 30.763 641.692 23 641.429 23C641.166 23 628.886 39.2 614.141 59L587.332 95L584.758 93.286C576.808 87.992 566.555 82.867 558.89 80.354C551.233 77.844 548.735 77.504 538.183 77.534C525.206 77.572 518.397 79.276 510.591 84.442L506.867 86.907L487.591 44.453C476.99 21.104 468.051 2 467.727 2C467.403 2 466.543 4.587 465.817 7.75C465.09 10.913 457.855 40.5 449.739 73.5C441.623 106.5 434.245 136.59 433.344 140.366C430.336 152.969 424.977 159.553 417.879 159.366C409.855 159.156 367.527 133.008 341.533 112.203C326.254 99.975 304.281 78.454 294.359 66C279.275 47.067 266.31 24.687 261.026 8.45898L258.271 0L251.227 0.140991C247.353 0.217991 239.008 0.667001 232.683 1.138ZM506.2 130.657C513.207 133.04 521.654 141.633 524.52 149.295C530.606 165.561 523.212 183.45 507.487 190.507C485.331 200.45 460.426 183.502 461.922 159.5C463.351 136.585 484.026 123.117 506.2 130.657ZM587.436 140.519C602.832 145.091 612.697 163.122 608.222 178.512C605.357 188.37 600.436 194.413 591.299 199.295C585.271 202.516 570.041 202.486 563.961 199.241C554.285 194.077 548.735 186.714 546.552 176.146C545.419 170.657 545.469 169.043 546.954 163.383C551.793 144.932 569.197 135.103 587.436 140.519ZM484.606 155.923C478.947 161.582 481.619 171.512 489.321 173.445C497.29 175.445 504.418 167.087 501.236 159.473C498.313 152.477 489.857 150.672 484.606 155.923ZM572.183 162.899C568.269 164.592 566.183 167.995 566.183 172.687C566.183 176.48 566.682 177.61 569.449 180.082C574.119 184.255 578.791 184.092 583.283 179.6C585.885 176.998 586.683 175.359 586.683 172.616C586.683 165.759 578.401 160.209 572.183 162.899ZM508.798 218.863C519.296 227.061 535.23 228.843 546.524 223.081C551.164 220.714 553.683 221.212 553.683 224.497C553.683 228.425 541.637 232.951 531.183 232.951C521.992 232.951 510.462 228.91 504.933 223.751C501.675 220.711 502.084 217.556 505.798 217.079C506.136 217.036 507.486 217.838 508.798 218.863Z" fill="black"/>
</svg>
